<svg width="18" height="18" viewBox="0 0 18 18" fill="none" xmlns="http://www.w3.org/2000/svg">
  <path d="M6 0C6.19891 0 6.38968 0.0790176 6.53033 0.21967C6.67098 0.360322 6.75 0.551088 6.75 0.75V1.5H11.25V0.75C11.25 0.551088 11.329 0.360322 11.4697 0.21967C11.6103 0.0790176 11.8011 0 12 0C12.1989 0 12.3897 0.0790176 12.5303 0.21967C12.671 0.360322 12.75 0.551088 12.75 0.75V1.5H14.8335C15.1508 1.5 15.4651 1.5625 15.7583 1.68395C16.0514 1.80539 16.3178 1.98338 16.5422 2.20778C16.7666 2.43217 16.9446 2.69856 17.0661 2.99175C17.1875 3.28493 17.25 3.59916 17.25 3.9165V15.5835C17.25 15.9008 17.1875 16.2151 17.0661 16.5083C16.9446 16.8014 16.7666 17.0678 16.5422 17.2922C16.3178 17.5166 16.0514 17.6946 15.7583 17.8161C15.4651 17.9375 15.1508 18 14.8335 18H3.1665C2.5256 18 1.91096 17.7454 1.45778 17.2922C1.00459 16.839 0.75 16.2244 0.75 15.5835V3.9165C0.75 3.2756 1.00459 2.66096 1.45778 2.20778C1.91096 1.75459 2.5256 1.5 3.1665 1.5H5.25V0.75C5.25 0.551088 5.32902 0.360322 5.46967 0.21967C5.61032 0.0790176 5.80109 0 6 0V0ZM5.25 3H3.1665C2.66025 3 2.25 3.41025 2.25 3.9165V6.75H15.75V3.9165C15.75 3.41025 15.3398 3 14.8335 3H12.75V3.75C12.75 3.94891 12.671 4.13968 12.5303 4.28033C12.3897 4.42098 12.1989 4.5 12 4.5C11.8011 4.5 11.6103 4.42098 11.4697 4.28033C11.329 4.13968 11.25 3.94891 11.25 3.75V3H6.75V3.75C6.75 3.94891 6.67098 4.13968 6.53033 4.28033C6.38968 4.42098 6.19891 4.5 6 4.5C5.80109 4.5 5.61032 4.42098 5.46967 4.28033C5.32902 4.13968 5.25 3.94891 5.25 3.75V3ZM15.75 8.25H2.25V15.5835C2.25 16.0898 2.66025 16.5 3.1665 16.5H14.8335C15.3398 16.5 15.75 16.0898 15.75 15.5835V8.25Z" fill="#5A657C"/>
</svg>
