<svg width="18" height="18" viewBox="0 0 18 18" fill="none" xmlns="http://www.w3.org/2000/svg">
  <g clip-path="url(#clip0_13_26729)">
    <path d="M8.24991 11.2507V12.7507H9.74991V11.2507H8.24991Z" fill="#BD002A"/>
    <path d="M8.24991 5.2507V9.7507H9.74991V5.2507H8.24991Z" fill="#BD002A"/>
    <path fill-rule="evenodd" clip-rule="evenodd"
          d="M8.99991 1.5007C4.85991 1.5007 1.49991 4.8607 1.49991 9.0007C1.49991 13.1407 4.85991 16.5007 8.99991 16.5007C13.1399 16.5007 16.4999 13.1407 16.4999 9.0007C16.4999 4.8607 13.1399 1.5007 8.99991 1.5007ZM15 8.99997C15 12.3137 12.3137 15 9 15C5.68629 15 3 12.3137 3 8.99997C3 5.68626 5.68629 2.99997 9 2.99997C12.3137 2.99997 15 5.68626 15 8.99997Z"
          fill="#BD002A"/>
  </g>
  <defs>
    <clipPath id="clip0_13_26729">
      <rect width="18" height="18" fill="white"/>
    </clipPath>
  </defs>
</svg>
