<svg width="25" height="20" viewBox="0 0 25 20" fill="none" xmlns="http://www.w3.org/2000/svg">
  <path
    d="M16.223 3.125H20.6311C21.2407 3.125 21.7332 3.62773 21.7332 4.25C21.7332 4.87227 21.2407 5.375 20.6311 5.375H16.7189C16.5398 6.28203 15.9303 7.03086 15.121 7.38945V17.75H20.6311C21.2407 17.75 21.7332 18.2527 21.7332 18.875C21.7332 19.4973 21.2407 20 20.6311 20H14.0189H7.40675C6.79719 20 6.30472 19.4973 6.30472 18.875C6.30472 18.2527 6.79719 17.75 7.40675 17.75H12.9169V7.38945C12.1076 7.02734 11.498 6.27852 11.319 5.375H7.40675C6.79719 5.375 6.30472 4.87227 6.30472 4.25C6.30472 3.62773 6.79719 3.125 7.40675 3.125H11.8149C12.3177 2.44297 13.1167 2 14.0189 2C14.9212 2 15.7202 2.44297 16.223 3.125ZM18.1378 13.25H23.1279L20.6311 8.88359L18.1378 13.25ZM20.6311 16.625C18.4649 16.625 16.6638 15.4297 16.2919 13.8512C16.2023 13.4645 16.3263 13.0672 16.5226 12.7227L19.8012 6.98516C19.9734 6.68281 20.2902 6.5 20.6311 6.5C20.9721 6.5 21.2889 6.68633 21.4611 6.98516L24.7396 12.7227C24.9359 13.0672 25.0599 13.4645 24.9704 13.8512C24.5984 15.4297 22.7973 16.625 20.6311 16.625ZM7.36543 8.88359L4.87208 13.25H9.86222L7.36543 8.88359ZM3.02962 13.8512C2.94008 13.4645 3.06406 13.0672 3.26036 12.7227L6.5389 6.98516C6.7111 6.68281 7.02793 6.5 7.36887 6.5C7.70981 6.5 8.02665 6.68633 8.19884 6.98516L11.4774 12.7227C11.6737 13.0672 11.7977 13.4645 11.7081 13.8512C11.3327 15.4297 9.53161 16.625 7.36543 16.625C5.19925 16.625 3.40156 15.4297 3.02962 13.8512Z"
    fill="#12205C"/>
</svg>
