<svg width="40" height="20" viewBox="0 0 40 20" fill="none" xmlns="http://www.w3.org/2000/svg">
  <g clip-path="url(#clip0_47_400)">
    <rect width="40" height="20" rx="4" fill="#5A657C"/>
    <rect x="2" y="2" width="16" height="16" rx="2" fill="white"/>
    <path fill-rule="evenodd" clip-rule="evenodd" d="M26.2197 6.21967C26.5126 5.92678 26.9874 5.92678 27.2803 6.21967L30.25 9.18934L33.2197 6.21967C33.5126 5.92678 33.9874 5.92678 34.2803 6.21967C34.5732 6.51256 34.5732 6.98744 34.2803 7.28033L31.3107 10.25L34.2803 13.2197C34.5732 13.5126 34.5732 13.9874 34.2803 14.2803C33.9874 14.5732 33.5126 14.5732 33.2197 14.2803L30.25 11.3107L27.2803 14.2803C26.9874 14.5732 26.5126 14.5732 26.2197 14.2803C25.9268 13.9874 25.9268 13.5126 26.2197 13.2197L29.1893 10.25L26.2197 7.28033C25.9268 6.98744 25.9268 6.51256 26.2197 6.21967Z" fill="white"/>
  </g>
  <defs>
    <clipPath id="clip0_47_400">
      <rect width="40" height="20" fill="white"/>
    </clipPath>
  </defs>
</svg>
