<?xml version="1.0" encoding="UTF-8"?>
<svg id="Website_icons" xmlns="http://www.w3.org/2000/svg" viewBox="0 0 60 60">
  <path d="M57.32,2.79c-1.59-1.6-3.69-2.63-5.93-2.74-.27-.09-.56-.04-.86-.04h-31.55c-2.39,0-4.63.93-6.32,2.61-1.64,1.62-2.57,3.77-2.64,6.06,0,.08,0,.15,0,.23l-.15,34.93H2.86c-1.57,0-2.84,1.27-2.85,2.84v4.32c-.02,2.4.9,4.65,2.59,6.36,1.69,1.7,3.94,2.64,6.35,2.65h6.92c7.35-.05,19.03-.09,21.79-.04.27.03-.03.04.24.04h0c.12,0,.24-.01.35-.03.08,0,.17.03.25.03h.03c4.84,0,8.81-3.86,8.97-8.67,0-.08,0-.15,0-.23l.11-34.76,9.43-.04c1.56,0,2.83-1.27,2.83-2.84v-4.32c.02-2.4-.9-4.66-2.59-6.36ZM27.11,54.26c-5.64.02-11.26.05-11.25.05h-6.89c-.88,0-1.7-.35-2.32-.97-.62-.62-.96-1.45-.95-2.33v-1.48h23.84v1.46c0,1.13.2,2.23.59,3.25-.91,0-1.92,0-3.01,0ZM41.84,50.87c0,.06,0,.11,0,.17,0,.88-.35,1.7-.97,2.32-.62.62-1.44.95-2.31.95,0,0-.01,0-.02,0-.2,0-.39.02-.58.06-.01,0-.02,0-.03,0v-.06c-.88,0-1.13-.35-1.75-.97-.62-.62-.96-1.45-.95-2.33v-4.32c.02-.76-.28-1.48-.82-2.02-.53-.54-1.26-.84-2.02-.84H15.54l.15-34.69c0-.06,0-.11,0-.17,0-.88.35-1.7.97-2.32.62-.62,1.44-.95,2.32-.95h23.67c-.43,1.04-.67,2.18-.68,3.38,0,.05,0,.1,0,.15l-.13,41.63ZM54.23,10.62l-6.57.03v-1.59s0-.05,0-.08c.07-1.75,1.52-3.14,3.28-3.14h.01c.88,0,1.7.35,2.32.97.62.62.96,1.45.95,2.33v1.49Z"/>
  <path d="M34.84,26.37c-.43-.63-.99-1.17-1.67-1.6-.68-.44-1.41-.81-2.18-1.11-.77-.3-1.5-.57-2.19-.81-.68-.24-1.24-.5-1.67-.77-.43-.27-.65-.58-.65-.93,0-.46.19-.81.56-1.05.37-.25.9-.37,1.58-.37.85,0,1.6.13,2.25.4s1.34.65,2.06,1.17l2.27-2.6c-.76-.77-1.64-1.4-2.63-1.9-.67-.34-1.45-.55-2.33-.67v-4.03s-3.03-.01-3.03-.01v4.07c-.69.1-1.32.26-1.89.5-1.03.42-1.82,1.02-2.38,1.79s-.84,1.69-.85,2.74c0,.95.21,1.75.64,2.39.43.64.99,1.18,1.67,1.62.68.44,1.41.8,2.18,1.09.77.29,1.5.57,2.19.83.68.26,1.24.54,1.69.84.44.3.67.67.66,1.1,0,.43-.2.77-.59,1.02-.39.25-.96.37-1.71.37-.97,0-1.9-.18-2.79-.52-.89-.34-1.83-.82-2.82-1.42l-2,3.1c.62.52,1.33.97,2.12,1.34.8.38,1.61.67,2.45.88.47.12.92.19,1.35.25l-.02,4.54h3.04s.02-4.62.02-4.62c.73-.12,1.39-.29,1.97-.55,1.09-.47,1.91-1.12,2.47-1.93.56-.82.84-1.74.85-2.78,0-.95-.21-1.74-.64-2.38Z"/>
</svg>