<?xml version="1.0" encoding="UTF-8"?>
<svg id="Website_icons" xmlns="http://www.w3.org/2000/svg" viewBox="0 0 60 60">
  <path d="M37.08,15.7h0l-24.24-.08c-1.1,0-1.98-.9-1.98-1.99,0-1.1.89-1.98,1.99-1.98h0l24.24.08c1.1,0,1.98.9,1.98,1.99,0,1.1-.89,1.98-1.99,1.98Z"/>
  <path d="M36.97,48.37h0l-24.24-.08c-1.1,0-1.98-.9-1.98-1.99,0-1.1.89-1.98,1.99-1.98h0l24.24.08c1.1,0,1.98.9,1.98,1.99,0,1.1-.89,1.98-1.99,1.98Z"/>
  <path d="M48.68,15.92l.04-12.82c0-1.62-1.3-2.94-2.93-2.95L3.53.02h0C1.9.02.59,1.33.58,2.94l-.18,53.97c0,1.62,1.3,2.94,2.93,2.95l42.27.14h0c1.62,0,2.93-1.31,2.94-2.93l.04-12.82c6.31-1.62,10.98-7.32,11-14.13.02-6.81-4.62-12.54-10.91-14.2ZM42.69,54.12l-36.4-.12.16-48.1,36.4.12-.03,9.57c-4.46.65-8.26,3.3-10.48,7.01l-19.53-.06h0c-1.09,0-1.98.89-1.99,1.98,0,1.1.88,1.99,1.98,1.99l17.93.06c-.27,1.11-.43,2.26-.44,3.46,0,1.19.15,2.35.41,3.46l-17.93-.06h0c-1.09,0-1.98.88-1.99,1.98,0,1.1.88,1.99,1.98,1.99l19.53.06c2.19,3.73,5.98,6.4,10.43,7.08l-.03,9.57ZM46.73,39.74c-.58.57-1.3.86-2.17.86-.87,0-1.59-.29-2.16-.87-.57-.58-.86-1.32-.86-2.23,0-.89.29-1.62.87-2.18.58-.56,1.3-.84,2.17-.84.87,0,1.59.29,2.17.86.57.57.86,1.3.86,2.19,0,.91-.29,1.65-.87,2.23ZM50.51,26.56c-.33.56-.73,1.05-1.22,1.5-.49.44-.96.87-1.43,1.27-.47.4-.85.86-1.14,1.36-.29.5-.4,1.11-.32,1.82h-3.88c-.14-.82-.09-1.53.16-2.13.24-.61.59-1.14,1.02-1.6.44-.46.89-.89,1.37-1.28.48-.39.87-.78,1.19-1.16.31-.38.47-.8.47-1.24,0-.63-.21-1.1-.63-1.43-.42-.32-.96-.49-1.61-.49-.63,0-1.18.12-1.67.37-.49.25-.96.59-1.43,1.01l-2.48-2.28c.73-.81,1.6-1.46,2.6-1.96,1-.5,2.1-.75,3.29-.75,1.17,0,2.22.19,3.15.56.93.37,1.67.91,2.22,1.64.55.73.83,1.65.82,2.76,0,.81-.17,1.49-.49,2.04Z"/>
</svg>