<?xml version="1.0" encoding="UTF-8"?>
<svg id="Website_icons" xmlns="http://www.w3.org/2000/svg" viewBox="0 0 60 60">
  <path d="M59.95,32.05l-1.28-6.37c-.19-.96-.82-1.73-1.65-2.14-.03-.6-.14-1.2-.36-1.77l-3.75-9.89c-.85-2.25-3-3.73-5.4-3.73H12.5c-2.4,0-4.55,1.49-5.4,3.73l-3.75,9.89c-.22.57-.33,1.17-.36,1.77-.83.41-1.46,1.18-1.65,2.14L.06,32.05c-.07.34-.08.69-.03,1.04l1.28,9.15c.2,1.4,1.32,2.48,2.72,2.64l25.64,2.78c.11.01.22.02.33.02s.22,0,.33-.02l25.64-2.78c1.4-.15,2.52-1.24,2.72-2.64l1.28-9.15c.05-.34.04-.7-.03-1.04ZM12.5,13.92h35.02l3.52,9.29H8.98l3.52-9.29ZM9,36.23c-2.02,0-3.65-1.65-3.65-3.67,0-2.02,1.65-3.65,3.67-3.65,2.02,0,3.65,1.65,3.65,3.67s-1.65,3.65-3.67,3.65ZM42.98,40.94l-12.82,1.39c-.05,0-.1,0-.16,0s-.1,0-.16,0l-12.82-1.39c-.79-.09-1.37-.8-1.28-1.59.09-.79.78-1.37,1.59-1.28l12.66,1.37,12.66-1.37c.81-.09,1.51.49,1.59,1.28.09.79-.49,1.51-1.28,1.59ZM42.98,35.16l-12.82,1.39c-.05,0-.1,0-.16,0s-.1,0-.16,0l-12.82-1.39c-.79-.09-1.37-.8-1.28-1.59.09-.79.78-1.36,1.59-1.28l12.66,1.37,12.66-1.37c.81-.08,1.51.49,1.59,1.28.09.79-.49,1.51-1.28,1.59ZM50.99,36.23c-2.02,0-3.65-1.65-3.65-3.67,0-2.02,1.65-3.65,3.67-3.65,2.02,0,3.65,1.65,3.65,3.67,0,2.02-1.65,3.65-3.67,3.65Z"/>
  <path d="M44.44,49.51v6.48c0,2.22,1.8,4.02,4.02,4.02h3.06c2.22,0,4.02-1.8,4.02-4.02v-7.68l-11.09,1.2Z"/>
  <path d="M4.48,48.3v7.68c0,2.22,1.8,4.02,4.02,4.02h3.06c2.22,0,4.02-1.8,4.02-4.02v-6.48l-11.09-1.2Z"/>
</svg>