<?xml version="1.0" encoding="UTF-8"?>
<svg id="Website_icons" xmlns="http://www.w3.org/2000/svg" viewBox="0 0 60 60">
  <defs>
    <style>
      .cls-1 {
        fill: none;
      }
    </style>
  </defs>
  <path class="cls-1" d="M24.26,10.67v-.63s5.75-2.8,5.75-2.8l5.73,2.84v.63c-.01.68-.07,1.3-.15,1.9,2.61.63,4.74,1.58,6.11,2.31.04,0,.07-.01.11-.01.13,0,.26.01.39.04l1.51-1.39-5.19-5.12-8.52-4.18-8.56,4.19-5.16,5.1,1.52,1.39c.13-.02.26-.04.39-.04.04,0,.07,0,.11.01,1.37-.72,3.49-1.67,6.1-2.31-.08-.61-.14-1.25-.14-1.94Z"/>
  <path class="cls-1" d="M39.8,19.73v-1.27c-1.18-.62-3.08-1.46-5.4-2-.07.14-.15.25-.22.37,1.95.62,3.7,1.67,5.17,3.03.15-.04.3-.09.43-.13,0,0,.02,0,.02,0Z"/>
  <path class="cls-1" d="M25.57,16.46c-2.32.54-4.2,1.38-5.37,1.99v1.27s.02,0,.03,0c.13.04.28.08.43.13,1.46-1.35,3.2-2.4,5.14-3.02-.07-.13-.15-.24-.23-.38Z"/>
  <path class="cls-1" d="M32.14,16.37c.77-1.14,1.45-2.77,1.57-5.06l-3.7-1.83-3.71,1.81c.11,2.3.78,3.94,1.55,5.09.71-.11,1.43-.19,2.16-.19s1.44.07,2.14.18Z"/>
  <path class="cls-1" d="M36.67,50.52c0,4.78,3.23,6.15,3.23,6.15,0,0,3.23-1.35,3.27-6.13l-3.25-1.61-3.26,1.59Z"/>
  <path d="M35.8,42.44c4.7-2.19,7.97-6.95,7.97-12.48,0-2.45-.65-4.74-1.77-6.74-1.54.57-5.88,1.94-12.01,1.94s-10.47-1.37-12.01-1.94c-1.12,1.99-1.77,4.29-1.77,6.74,0,5.53,3.27,10.29,7.97,12.48-9.12.61-16.33,8.17-16.33,17.44v.06h17.72l3.02-10.89-2.27-4.61h7.33l-2.27,4.61,3.02,10.89h17.72v-.06c0-9.27-7.21-16.83-16.33-17.44ZM39.97,56.64s-3.25-1.38-3.25-6.19l3.28-1.6,3.27,1.62c-.04,4.82-3.29,6.17-3.29,6.17Z"/>
  <path d="M48.05,12.17l-6.94-6.83c-.15-.15-.33-.28-.53-.37L30.91.22c-.22-.11-.47-.17-.72-.19-.38-.04-.76.02-1.11.19l-9.71,4.76c-.2.1-.37.22-.53.38l-6.9,6.82c-.39.39-.61.92-.6,1.47.01.55.25,1.08.65,1.45l4.17,3.82v2.19h0v.03s0,.02,0,.03c0,.16.03.32.07.48.01.04.02.08.03.12.05.16.12.32.21.46,0,.01.02.03.03.04.09.13.19.24.31.35.03.03.06.06.1.08.13.11.28.21.45.28.04.02.25.11.62.24,1.54.57,5.88,1.94,12.01,1.94s10.46-1.37,12.01-1.94c.37-.14.58-.23.62-.24.17-.07.31-.17.45-.28.03-.03.06-.05.1-.08.12-.11.22-.22.31-.35,0-.01.02-.03.03-.04.09-.14.16-.3.21-.46.01-.04.02-.08.03-.12.04-.15.07-.31.07-.48,0-.01,0-.02,0-.03v-.03h0v-2.2l4.17-3.82c.41-.37.64-.9.65-1.45.01-.55-.21-1.08-.6-1.47ZM39.17,19.92c-.07.02-.15.04-.23.06-.18.05-.37.1-.57.15-.08.02-.16.04-.25.06-.28.07-.59.14-.91.21-.06.01-.12.02-.18.04-.27.06-.56.11-.86.16-.11.02-.22.04-.34.06-.3.05-.62.1-.95.14-.08.01-.16.02-.25.04-.41.05-.83.1-1.28.14-.11.01-.23.02-.34.03-.35.03-.72.05-1.09.07-.14,0-.27.01-.41.02-.49.02-.99.03-1.52.03s-1.02-.01-1.5-.03c-.14,0-.28-.01-.41-.02-.37-.02-.74-.04-1.09-.07-.11,0-.22-.02-.33-.03-.44-.04-.86-.09-1.27-.14-.09-.01-.18-.03-.28-.04-.32-.04-.63-.09-.93-.14-.11-.02-.23-.04-.34-.06-.31-.06-.61-.11-.9-.17-.05,0-.1-.02-.15-.03-.32-.07-.62-.14-.91-.21-.09-.02-.18-.05-.27-.07-.2-.05-.39-.1-.56-.15-.08-.02-.16-.04-.23-.06-.07-.02-.12-.04-.19-.06-.15-.04-.3-.09-.43-.13-.01,0-.02,0-.03,0v-1.27c1.18-.62,3.06-1.46,5.37-1.99.07.14.15.25.23.38,1.52,2.63,3.62,3.63,3.76,3.69l.41.18.4-.18c.14-.06,2.27-1.05,3.8-3.7.07-.13.15-.24.22-.37,2.32.54,4.21,1.38,5.4,2v1.27s-.02,0-.02,0c-.13.04-.28.08-.43.13-.06.02-.11.03-.18.05ZM26.29,11.29l3.71-1.81,3.7,1.83c-.12,2.29-.8,3.92-1.57,5.06-.78,1.15-1.66,1.8-2.16,2.1-.5-.3-1.37-.95-2.14-2.1-.77-1.14-1.44-2.79-1.55-5.09ZM42.2,14.94c-.13-.02-.26-.04-.39-.04-.04,0-.07,0-.11.01-1.37-.73-3.5-1.67-6.11-2.31.08-.6.14-1.22.15-1.9v-.63s-5.73-2.84-5.73-2.84l-5.75,2.8v.63c0,.7.06,1.33.14,1.94-2.61.63-4.73,1.58-6.1,2.31-.04,0-.07-.01-.11-.01-.13,0-.26.01-.39.04l-1.52-1.39,5.16-5.1,8.56-4.19,8.52,4.18,5.19,5.12-1.51,1.39Z"/>
</svg>