<?xml version="1.0" encoding="UTF-8"?>
<svg id="Website_icons" xmlns="http://www.w3.org/2000/svg" viewBox="0 0 60 60">
  <path d="M52.22,50.93l1.94,3.24h-24.41l1.94-3.24h20.52M52.22,45.09h-20.52c-2.05,0-3.95,1.07-5,2.83l-1.94,3.24c-1.08,1.8-1.11,4.05-.07,5.88s2.97,2.96,5.08,2.96h24.41c2.1,0,4.04-1.13,5.08-2.96s1.01-4.07-.07-5.88l-1.94-3.24c-1.05-1.76-2.95-2.83-5-2.83h0Z"/>
  <path d="M56.57,22.22l-3.42-3.17c-.76-.71-1.73-1.06-2.69-1.06-1.06,0-2.12.43-2.9,1.27l-.09.1c-.15-.22-.32-.42-.52-.61l-9.3-8.63.03-.03c.71-.77,1.09-1.79,1.05-2.84-.04-1.05-.49-2.04-1.26-2.75l-3.42-3.17c-.76-.71-1.73-1.06-2.69-1.06-1.06,0-2.12.43-2.9,1.26l-9.51,10.25c-.71.77-1.09,1.79-1.05,2.84.04,1.05.49,2.04,1.26,2.75l3.42,3.17c.76.71,1.73,1.06,2.69,1.06,1.06,0,2.12-.43,2.9-1.27l.03-.03,2.41,2.23L.58,52.54c-.38.38-.59.9-.58,1.44,0,.54.24,1.05.63,1.41l4.41,4.09c.37.34.85.53,1.34.53.04,0,.07,0,.11,0,.54-.03,1.04-.28,1.39-.69l27.66-32.19,1.96,1.82c.2.19.42.34.64.47l-.09.1c-.71.77-1.09,1.79-1.05,2.84.04,1.05.49,2.04,1.26,2.75l3.42,3.17c.76.71,1.73,1.06,2.69,1.06,1.06,0,2.12-.43,2.9-1.27l9.51-10.25c.71-.77,1.09-1.79,1.05-2.84-.04-1.05-.49-2.04-1.26-2.75ZM34.78,7.4l-3.17,3.42-6.34,6.84-3.42-3.17h0s9.51-10.25,9.51-10.25h0l3.42,3.17h0ZM44.37,35.38l-3.42-3.17h0l9.51-10.25,3.42,3.17-9.51,10.25Z"/>
</svg>