<?xml version="1.0" encoding="UTF-8"?>
<svg id="Website_icons" xmlns="http://www.w3.org/2000/svg" viewBox="0 0 60 60">
  <path d="M11.93,45.08c0-9.71,7.69-17.81,17.29-18.46-1.25-4.91-5.62-8.57-10.88-8.74,3.1-1.46,5.25-4.61,5.25-8.27C23.58,4.57,19.49.47,14.44.47S5.29,4.57,5.29,9.62c0,3.69,2.19,6.86,5.34,8.31C4.76,18.52.19,23.47.19,29.49v8.44c0,1.28,1.04,2.31,2.31,2.29.83,0,1.86-.02,3.01-.03v13.86c0,3.29,2.66,5.95,5.95,5.95h6.85c.37,0,.72-.04,1.07-.1-4.51-3.38-7.45-8.76-7.45-14.82Z"/>
  <path d="M56.9,53.27c-.84,0-1.67-.36-2.25-1.06l-5.78-7.02h-13.64c-1.61,0-2.91-1.3-2.91-2.91v-24.9c0-1.61,1.3-2.91,2.91-2.91s2.91,1.3,2.91,2.91v21.99h12.1c.87,0,1.69.39,2.25,1.06l6.65,8.08c1.02,1.24.84,3.07-.4,4.1-.54.45-1.2.66-1.85.66Z"/>
  <path d="M35.24,48.1c-3.21,0-5.82-2.61-5.82-5.82v-11.61c-7.46.54-13.42,6.85-13.42,14.41,0,7.97,6.49,14.46,14.46,14.46,6.93,0,12.73-4.91,14.12-11.44h-9.34Z"/>
</svg>