<?xml version="1.0" encoding="UTF-8"?>
<svg id="Website_icons" xmlns="http://www.w3.org/2000/svg" viewBox="0 0 60 60">
  <path d="M56.99,60h0l-53.97-.14c-.95,0-1.84-.46-2.39-1.24s-.69-1.76-.38-2.66l3.11-8.95c.41-1.18,1.52-1.97,2.77-1.97h0l48.11.14c1.28,0,2.42.84,2.8,2.07l2.76,8.95c.27.89.11,1.86-.45,2.61-.55.75-1.43,1.19-2.36,1.19ZM7.13,54l45.88.12-.95-3.08-43.86-.13-1.07,3.09Z"/>
  <path d="M54.36,3.03c-.55-.55-1.29-.87-2.07-.87l-44.2-.14h0c-1.61,0-2.92,1.3-2.93,2.92l-.18,34.37c0,.78.3,1.53.85,2.08.55.55,1.29.87,2.07.87l44.2.14h0c1.61,0,2.92-1.3,2.93-2.92l.18-34.37c0-.78-.3-1.53-.85-2.08ZM49.18,36.52l-17.91-.06.04-16.08c.59-.2,1.11-.53,1.56-.97.45-.45.78-.96.99-1.55l5.3.02-4.3,9.78c-.13.28-.2.56-.21.82-.01.27,0,.54.05.83.23,1.1.83,1.93,1.82,2.48.98.55,2,.83,3.05.84,1.05,0,2.08-.26,3.1-.8,1.01-.54,1.62-1.35,1.83-2.45.05-.31.06-.6.04-.88-.03-.28-.1-.55-.23-.81l-4.23-9.81h1.38c.38,0,.71-.13.98-.4.27-.27.41-.59.41-.98,0-.38-.13-.71-.4-.98-.27-.27-.59-.41-.98-.41l-7.61-.03c-.28-.82-.78-1.49-1.49-2-.72-.52-1.52-.77-2.42-.78-.9,0-1.7.25-2.42.76-.72.51-1.22,1.17-1.5,1.99l-7.61-.03c-.38,0-.71.13-.98.4-.27.27-.41.59-.41.98,0,.38.13.71.4.98.27.27.59.41.98.41h1.38s-4.3,9.79-4.3,9.79c-.13.28-.2.56-.21.82-.01.27,0,.54.06.83.23,1.1.83,1.93,1.82,2.48.98.55,2,.83,3.05.84,1.05,0,2.07-.27,3.06-.82.99-.55,1.6-1.37,1.83-2.47.05-.28.07-.56.06-.83-.01-.27-.08-.54-.21-.83l-4.23-9.81,5.3.02c.2.59.53,1.11.97,1.56.45.45.96.78,1.55.98l-.04,16.08-17.65-.06.15-28.51,38.33.12-.15,28.51Z"/>
</svg>