<?xml version="1.0" encoding="UTF-8"?>
<svg id="Website_icons" xmlns="http://www.w3.org/2000/svg" viewBox="0 0 60 60">
  <path d="M29.61,4.04c4.41,0,7.98,3.57,7.98,7.98,0,3.22-1.91,5.99-4.66,7.25,4.02.52,7.16,4.84,7.16,10.08v9.4c0,1.11-.7,2-1.57,2,0,0-.02,0-.03,0-.4,0-.87-.01-1.38-.02v10.04c0,2.87-2.02,5.19-4.52,5.19h-5.2c-2.5,0-4.52-2.32-4.52-5.19v-9.96c-.51,0-.99.01-1.39.02,0,0-.01,0-.02,0-.87,0-1.57-.89-1.57-2v-9.49c0-5,2.85-9.15,6.61-9.98-2.87-1.21-4.88-4.05-4.88-7.36,0-4.41,3.57-7.98,7.98-7.98M29.61.02C22.99.02,17.6,5.4,17.6,12.02c0,2.53.78,4.92,2.17,6.89-2.41,2.61-3.89,6.35-3.89,10.44v9.49c0,2.3,1.21,4.31,2.98,5.32v6.62c0,5.08,3.83,9.22,8.54,9.22h5.2c4.71,0,8.54-4.14,8.54-9.22v-6.7c1.77-1.01,2.98-3.02,2.98-5.32v-9.4c0-4.38-1.68-8.33-4.36-10.94,1.19-1.88,1.86-4.09,1.86-6.39C41.61,5.4,36.23.02,29.61.02h0Z"/>
</svg>