<?xml version="1.0" encoding="UTF-8"?>
<svg id="Website_icons" xmlns="http://www.w3.org/2000/svg" viewBox="0 0 60 60">
  <path d="M50.84,2.38c-.55-.55-1.29-.86-2.07-.87l-6.05-.02c.05.17.08.35.08.53l-.02,5.34h3.03s-.1,29.86-.1,29.86l-29.84-.1c-.14.01-.27,0-.4.03-.43.03-.85.12-1.27.24l.09-27.23c0-.96,1.23-2.89,2.24-2.89h0l9,.03.02-5.34c0-.19.04-.36.08-.53l-9.09-.03h-.02c-4.93,0-8.09,5.17-8.1,8.74l-.12,36.12h0c0,2.26.76,4.47,2.16,6.24,1.48,1.87,3.44,2.94,5.38,2.95h.63s.02-5.86.02-5.86h-.55c-.51-.12-1.77-1.43-1.76-3.3,0-1.89,1.33-3.18,1.71-3.28.08,0,.17,0,.25,0l29.48.1-.02,6.59-11.85-.04-.02,5.87,14.79.05h0c1.62,0,2.93-1.31,2.93-2.92l.04-11.79c.05-.21.08-.43.08-.66l.12-35.72c0-.78-.3-1.53-.85-2.08Z"/>
  <path d="M34.13,14.45c.38,0,.76.11,1.09.33l3.62,2.41.04-13.23-9.42-.03-.04,13.23,3.64-2.39c.33-.21.7-.32,1.07-.32ZM40.78,22.8c-.38,0-.76-.11-1.09-.33l-5.57-3.72-5.6,3.68c-.6.4-1.37.43-2.01.09s-1.03-1.01-1.02-1.73l.06-18.82c0-1.08.88-1.95,1.96-1.95h0l13.33.04c.52,0,1.02.21,1.38.58.37.37.57.87.57,1.38l-.06,18.82c0,.72-.4,1.38-1.04,1.72-.29.15-.6.23-.92.23Z"/>
  <path d="M31.75,60.02c-.38,0-.76-.11-1.08-.33l-5.57-3.71-5.6,3.68c-.6.4-1.37.43-2.01.09-.63-.34-1.03-1.01-1.02-1.73l.04-11.76c0-1.08.88-1.95,1.96-1.95h0l13.33.04c1.08,0,1.95.88,1.95,1.96l-.04,11.76c0,.72-.4,1.38-1.04,1.72-.29.15-.6.23-.92.23ZM25.1,51.67c.38,0,.76.11,1.08.33l3.62,2.41.02-6.17-9.42-.03-.02,6.17,3.64-2.39c.33-.21.7-.32,1.07-.32Z"/>
</svg>