<?xml version="1.0" encoding="UTF-8"?>
<svg id="Website_icons" xmlns="http://www.w3.org/2000/svg" viewBox="0 0 60 60">
  <path d="M56.75,45.25l-.56-21.4c1.31-.73,2.28-1.98,2.63-3.49.59-2.48-.6-5-2.88-6.14L32.68,2.71c-.74-.37-1.57-.56-2.4-.57-.83,0-1.66.19-2.41.55L4.55,14.06c-2.29,1.12-3.49,3.63-2.93,6.12.35,1.51,1.3,2.77,2.61,3.51l-.7,21.4c-1.87.87-3.13,2.74-3.13,4.91l-.02,4.58c0,3.01,2.43,5.46,5.43,5.47l48.56.16c3.01.01,5.46-2.43,5.47-5.43l.02-4.58c0-2.16-1.23-4.05-3.1-4.93ZM30.11,6.72l23.67,11.73-47.42-.16L30.11,6.72ZM51.51,45.6l-5.58-.02.76-23.21h4.21s.61,23.23.61,23.23ZM39.02,45.55l-5.58-.02.76-23.21h4.21s.61,23.23.61,23.23ZM26.53,45.51l-5.58-.02.76-23.21h4.21s.61,23.23.61,23.23ZM14.04,45.47l-5.58-.02.76-23.21h4.21s.61,23.23.61,23.23ZM54.67,54.73l-49.44-.16.02-4.66,49.44.16-.02,4.66Z"/>
  <circle cx="30.09" cy="12.78" r="3.62"/>
</svg>