<?xml version="1.0" encoding="UTF-8"?>
<svg id="Website_icons" xmlns="http://www.w3.org/2000/svg" viewBox="0 0 60 60">
  <path d="M30.53,0s-.07,0-.1,0C13.91,0,.48,13.36.43,29.9c-.05,16.57,13.33,30.04,29.9,30.1.03,0,.07,0,.1,0,16.52,0,29.94-13.37,30-29.9C60.48,13.53,47.1.05,30.53,0ZM30.35,53.67c-1.65,0-3.75-2.28-5.35-5.79-.91-2-1.64-4.35-2.19-6.9l15.16.05c-.56,2.54-1.31,4.89-2.23,6.88-1.63,3.51-3.74,5.77-5.4,5.77ZM22.13,36.97c-.29-2.26-.44-4.62-.43-7,0-2.39.18-4.74.48-7l16.56.05c.29,2.26.44,4.62.43,7,0,2.39-.18,4.74-.48,7l-16.56-.05ZM6.43,29.92c0-2.43.38-4.78,1.07-7l10.63.03c-.28,2.24-.43,4.58-.44,7s.13,4.76.39,7l-10.63-.04c-.67-2.22-1.03-4.57-1.02-7ZM30.5,6.32v-.33s0,0,0,0v.33c1.65,0,3.75,2.28,5.35,5.79.91,2,1.64,4.35,2.19,6.9l-15.16-.05c.56-2.54,1.31-4.89,2.23-6.87,1.63-3.51,3.74-5.77,5.39-5.77ZM42.77,23.04l10.63.03c.67,2.22,1.03,4.57,1.02,7,0,2.43-.38,4.78-1.07,7l-10.63-.04c.28-2.24.43-4.58.44-7s-.13-4.76-.39-7ZM51.78,19.07l-9.63-.03c-.95-4.85-2.53-8.99-4.51-11.93,6.15,1.94,11.23,6.31,14.14,11.96ZM23.36,7.06c-2,2.93-3.6,7.05-4.58,11.9l-9.63-.03c2.94-5.63,8.05-9.96,14.21-11.86ZM9.07,40.92l9.63.03c.95,4.85,2.53,8.99,4.51,11.93-6.15-1.94-11.23-6.31-14.14-11.96ZM37.49,52.93c2-2.93,3.6-7.05,4.58-11.9l9.63.03c-2.94,5.63-8.05,9.96-14.21,11.86Z"/>
</svg>