<?xml version="1.0" encoding="UTF-8"?>
<svg id="Website_icons" xmlns="http://www.w3.org/2000/svg" viewBox="0 0 60 60">
  <path d="M32.41,29.31c2.3-1.06,3.89-3.37,3.89-6.06,0-3.69-2.99-6.67-6.67-6.67s-6.67,2.99-6.67,6.67c0,2.77,1.68,5.14,4.08,6.15-3.14.69-5.52,4.16-5.52,8.34v7.93c0,.93.6,1.68,1.33,1.67.33,0,.73,0,1.16-.01v8.33c0,2.4,1.69,4.34,3.78,4.34h4.35c2.09,0,3.78-1.94,3.78-4.34v-8.4c.43,0,.82,0,1.16.01.74.01,1.33-.74,1.33-1.67v-7.87c0-4.39-2.63-8-5.99-8.43Z"/>
  <path d="M21.07,55.66v-5.79c-1.47-.73-2.49-2.33-2.49-4.19v-7.93c0-3.45,1.3-6.59,3.38-8.7-1.24-1.63-1.94-3.66-1.94-5.8,0-1.9.56-3.67,1.52-5.16-.97-.3-2-.48-3.06-.52,3.12-1.48,5.29-4.65,5.29-8.33C23.77,4.14,19.64.02,14.55.02S5.33,4.14,5.33,9.24c0,3.72,2.21,6.91,5.38,8.37C4.81,18.21.2,23.19.2,29.26v8.5c0,1.28,1.04,2.32,2.33,2.31.83,0,1.87-.02,3.03-.03v13.96c0,3.31,2.68,6,6,6h6.9c1.24,0,2.4-.38,3.36-1.03-.47-1-.74-2.12-.74-3.31Z"/>
  <path d="M55.42,25.32c-1.19-4.07-4.15-7.1-7.74-7.67,3.22-1.44,5.47-4.66,5.47-8.42C53.15,4.14,49.02.02,43.93.02s-9.22,4.13-9.22,9.22c0,3.75,2.25,6.98,5.47,8.41-.8.13-1.56.38-2.28.73.84,1.43,1.33,3.09,1.33,4.86,0,1.97-.61,3.84-1.68,5.41,2.31,2.09,3.78,5.4,3.78,9.08v7.87c0,1.86-1.02,3.47-2.49,4.19v5.86c0,1.37-.36,2.65-.97,3.74.79.38,1.67.6,2.6.6h6.9c3.31,0,6-2.69,6-6v-2.82c1.52,0,2.86.01,3.92.03,1.38.02,2.51-1.02,2.51-2.31,0,0,0-14.82-4.38-23.59Z"/>
</svg>