<?xml version="1.0" encoding="UTF-8"?>
<svg id="Website_icons" xmlns="http://www.w3.org/2000/svg" viewBox="0 0 60 60">
  <path d="M35.82,26.33c4.71-2.2,7.99-6.96,7.99-12.51C43.81,6.2,37.62.02,30,.02s-13.81,6.18-13.81,13.8c0,5.54,3.27,10.31,7.99,12.51-9.13.61-16.36,8.19-16.36,17.48v12.73c0,1.92,1.56,3.48,3.49,3.46,8.28-.08,29.07-.27,37.37-.14,1.93.03,3.5-1.53,3.5-3.46v-12.59c0-9.29-7.23-16.87-16.36-17.48ZM30,20.72l-1.39-1.39c-.29-.29-.62-.62-.96-.96l-.97-.97c-.19-.19-.37-.37-.56-.56l-.49-.49-.13-.13-.55-.55c-1.14-1.14-2.07-2.07-2.25-2.25-1.53-1.53-1.53-4,0-5.52s4-1.53,5.52,0c.15.15.86.86,1.78,1.78.92-.92,1.63-1.63,1.78-1.78,1.53-1.53,4-1.53,5.52,0s1.53,4,0,5.52l-1.78,1.78-5.52,5.52Z"/>
</svg>