<?xml version="1.0" encoding="UTF-8"?>
<svg id="Website_icons" xmlns="http://www.w3.org/2000/svg" viewBox="0 0 60 60">
  <path d="M12.29,15.98l24.24.08h0c1.09,0,1.98-.89,1.99-1.98,0-1.1-.88-1.99-1.98-1.99l-24.24-.08h0c-1.09,0-1.98.89-1.99,1.98,0,1.1.88,1.99,1.98,1.99Z"/>
  <path d="M59.79,4.27l-2.78-2.47c-.19-.17-.43-.25-.67-.25-.28,0-.55.11-.75.34l-2.5,2.81-.47-.42c-.19-.17-.43-.25-.67-.25-.28,0-.55.11-.75.34l-3.02,3.4V3.1c.02-1.62-1.29-2.94-2.91-2.95l-15.15-.05L2.99.02h0C1.37.02.06,1.33.05,2.94l-.18,53.97c0,1.62,1.3,2.94,2.93,2.95l42.27.14h0c1.62,0,2.93-1.31,2.94-2.93l.11-35.71,9.8-11.03c.37-.41.33-1.05-.08-1.42l-.47-.42,2.5-2.81c.37-.41.33-1.05-.08-1.42ZM42.15,54.12l-36.4-.12.16-48.1,36.4.12-.03,8.37-7.62,8.58-22.39-.07h0c-1.09,0-1.98.88-1.99,1.98,0,1.1.88,1.99,1.98,1.99l18.88.06-4.86,5.46c-.07.08-.12.16-.17.26l-.53,1.18-13.36-.04h0c-1.09,0-1.98.88-1.99,1.98,0,1.1.88,1.99,1.98,1.99l11.58.04-2.49,5.52c-.18.4-.08.87.25,1.16.15.13.32.19.51.22l-9.88-.03h0c-1.09,0-1.98.89-1.99,1.98,0,1.1.88,1.99,1.98,1.99l24.24.08h0c1.09,0,1.98-.89,1.99-1.98,0-1.1-.88-1.99-1.98-1.99l-14-.05c.11-.02.21-.06.31-.12l10.03-6.02c.09-.05.17-.12.23-.19l.49-.55h2.96s0,0,0,0c1.09,0,1.98-.89,1.99-1.98,0-.93-.63-1.7-1.49-1.92l5.27-5.93-.08,26.12ZM33.11,33.85l-2.09,2.35-2.67,1.61-1.82,1.09.49-1.1,1.66-3.68.25-.28,6.13-6.9,2.93-3.3,14.13-15.9,2.34,2.08-21.35,24.02Z"/>
</svg>