<?xml version="1.0" encoding="UTF-8"?>
<svg id="Website_icons" xmlns="http://www.w3.org/2000/svg" viewBox="0 0 60 60">
  <path d="M58.75,25.65c-.76-.76-1.78-1.19-2.86-1.19h-.86v-3.25c0-3.29-2.62-5.97-5.89-6.07,1.62-.77,2.75-2.41,2.75-4.33,0-2.64-2.14-4.79-4.79-4.79s-4.79,2.14-4.79,4.79c0,1.93,1.15,3.59,2.79,4.35-3.07.31-5.46,2.9-5.46,6.05v3.2h-1.57v-3.2c0-3.29-2.62-5.97-5.89-6.07,1.62-.77,2.75-2.41,2.75-4.33,0-2.64-2.14-4.79-4.79-4.79s-4.79,2.14-4.79,4.79c0,1.93,1.15,3.59,2.79,4.35-3.07.31-5.46,2.9-5.46,6.05v3.14h-1.57v-3.14c0-3.29-2.62-5.97-5.89-6.07,1.62-.77,2.75-2.41,2.75-4.33,0-2.64-2.14-4.79-4.79-4.79s-4.79,2.14-4.79,4.79c0,1.93,1.15,3.59,2.79,4.35-3.07.31-5.46,2.9-5.46,6.05v3.09h-1.61s0,0-.01,0C1.91,24.28.1,26.08.09,28.31v3.38c-.02,1.07.4,2.1,1.16,2.86.74.75,1.75,1.17,2.8,1.19v20.07c-.01,2.23,1.79,4.04,4.02,4.04l43.81.14h.01c1.07,0,2.1-.42,2.85-1.18.76-.76,1.19-1.79,1.19-2.86v-20.05c2.19-.05,3.96-1.82,3.97-4.02v-3.38c.02-1.07-.4-2.1-1.16-2.86ZM17.72,53.11h-8.53v-16.84h8.53v16.84ZM34.67,53.11h-8.53v-16.84h8.53v16.84ZM51.61,53.11h-8.53v-16.84h8.53v16.84ZM55.86,31.87l-51.74-.17v-3.38s51.76.17,51.76.17v3.38Z"/>
</svg>