<?xml version="1.0" encoding="UTF-8"?>
<svg id="Website_icons" xmlns="http://www.w3.org/2000/svg" viewBox="0 0 60 60">
  <path d="M59.57,38.06c-.05-.57-.21-1.11-.46-1.63l-8.56-19.84h2.8c.78.01,1.44-.26,1.98-.8.55-.54.82-1.2.82-1.98s-.27-1.44-.81-1.98c-.54-.55-1.2-.82-1.98-.82l-15.38-.05c-.56-1.66-1.57-3.01-3.01-4.05-1.45-1.04-3.08-1.56-4.89-1.57s-3.45.5-4.9,1.54c-1.45,1.03-2.47,2.37-3.04,4.03l-15.38-.05c-.78,0-1.44.27-1.98.81-.55.54-.82,1.2-.82,1.98s.27,1.44.81,1.98c.54.54,1.2.82,1.98.82h2.8S.85,36.23.85,36.23c-.26.57-.4,1.12-.43,1.67-.03.55,0,1.1.11,1.67.46,2.23,1.68,3.9,3.67,5.02,1.99,1.12,4.05,1.68,6.17,1.69s4.18-.54,6.18-1.65c2-1.11,3.23-2.77,3.71-5,.11-.57.15-1.13.12-1.67-.02-.54-.16-1.1-.42-1.67l-8.56-19.84,10.72.04c.41,1.19,1.07,2.24,1.97,3.15.9.91,1.95,1.57,3.14,1.99l-.08,24.17c-2.6.36-5.15,1.22-7.64,2.6-3.38,1.87-5.47,4.69-6.28,8.46-.18.97-.25,1.91-.2,2.83l6.38.08,21.04.07,6.38-.04c.05-.92-.01-1.87-.19-2.83-.77-3.77-2.85-6.61-6.22-8.5-2.49-1.41-5.05-2.29-7.67-2.66l.08-24.16c1.19-.41,2.24-1.07,3.15-1.97.91-.9,1.57-1.95,1.99-3.14l10.72.04-8.69,19.78c-.26.57-.4,1.12-.43,1.67-.03.55,0,1.1.11,1.67.46,2.23,1.68,3.9,3.67,5.02,1.99,1.12,4.05,1.68,6.17,1.69s4.21-.53,6.26-1.61c2.05-1.08,3.28-2.74,3.71-4.96.11-.62.13-1.21.08-1.78ZM16.61,37.91l-12.43-.04,6.26-14.19,6.17,14.24ZM32.03,15.71c-.54.54-1.21.81-1.98.81s-1.44-.28-1.98-.82c-.54-.55-.81-1.21-.81-1.98s.28-1.43.82-1.98c.54-.54,1.21-.81,1.98-.81s1.44.27,1.98.82c.54.54.81,1.2.81,1.98s-.28,1.44-.82,1.98ZM43.33,38l6.26-14.19,6.17,14.24-12.43-.04Z"/>
</svg>