<?xml version="1.0" encoding="UTF-8"?>
<svg id="Website_icons" xmlns="http://www.w3.org/2000/svg" viewBox="0 0 60 60">
  <path d="M51.36,26.78c.91-4.26,1.47-9,1.51-14.31L27.7,0,2.44,12.3c.05,37.09,25.04,47.68,25.06,47.69.01,0,4.63-1.94,9.92-7.06,1.6.59,3.31.93,5.11.93,8.27.03,15-6.66,15.03-14.93.02-5.01-2.43-9.43-6.2-12.17ZM27.52,53.19c-5.34-3.35-17.76-13.63-18.99-37.18L27.68,6.68l19.08,9.45c-.17,2.91-.51,5.61-.99,8.13-1.01-.22-2.06-.34-3.13-.34-8.27-.03-15,6.66-15.03,14.93-.01,4.25,1.75,8.09,4.59,10.82-1.79,1.6-3.42,2.75-4.67,3.52ZM49.55,40.92h0l-4.97-.02-.02,4.97c0,1.1-.9,1.99-2,1.99h0c-1.1,0-2-.9-1.99-2.01l.02-4.97-4.97-.02c-1.1,0-2-.9-1.99-2.01,0-1.1.9-1.99,2-1.99h0l4.97.02.02-4.97c0-1.1.87-2,2.01-1.99,1.1,0,2,.9,1.99,2.01l-.02,4.97,4.97.02c1.1,0,2,.9,1.99,2.01,0,1.1-.9,1.99-2,1.99Z"/>
</svg>