<?xml version="1.0" encoding="utf-8"?>
<!-- Generator: Adobe Illustrator 27.2.0, SVG Export Plug-In . SVG Version: 6.00 Build 0)  -->
<svg version="1.1" id="Layer_1" xmlns:serif="http://www.serif.com/"
	 xmlns="http://www.w3.org/2000/svg" xmlns:xlink="http://www.w3.org/1999/xlink" x="0px" y="0px" viewBox="0 0 48 60"
	 style="enable-background:new 0 0 48 60;" xml:space="preserve">
<style type="text/css">
	.st0{fill-rule:evenodd;clip-rule:evenodd;fill:#93B2DD;stroke:#012362;stroke-miterlimit:10;}
</style>
<g transform="matrix(1,0,0,1,-48,-336)">
	<g>
		<path class="st0" d="M90.9,344.7v38.9c0,3.5-2.8,6.3-6.3,6.3H55.8c0.2,0.5,0.5,1,0.9,1.4c0.7,0.7,1.7,1.1,2.7,1.1
			c7.8,0,22.5,0,30.3,0c2.1,0,3.8-1.7,3.8-3.8v-40.4C93.5,346.6,92.4,345.2,90.9,344.7z"/>
		<path class="st0" d="M60.6,341.2l-8.3,8.3h4.5c1,0,2-0.4,2.7-1.1s1.1-1.7,1.1-2.7V341.2z"/>
		<path class="st0" d="M64.4,339.4h20.2c2.1,0,3.8,1.7,3.8,3.8v40.4c0,2.1-1.7,3.8-3.8,3.8c-7.8,0-22.5,0-30.3,0c-1,0-2-0.4-2.7-1.1
			s-1.1-1.7-1.1-2.7v-30.3c0-0.3,0.1-0.7,0.4-0.9c0.2-0.2,0.6-0.4,0.9-0.4h5.1c1.7,0,3.3-0.7,4.5-1.8c1.2-1.2,1.8-2.8,1.8-4.5v-5.1
			c0-0.3,0.1-0.7,0.4-0.9C63.8,339.6,64.1,339.4,64.4,339.4z M56.8,382.4h25.3c0.7,0,1.3-0.6,1.3-1.3c0-0.7-0.6-1.3-1.3-1.3H56.8
			c-0.7,0-1.3,0.6-1.3,1.3C55.6,381.8,56.1,382.4,56.8,382.4z M56.8,374.8h25.3c0.7,0,1.3-0.6,1.3-1.3c0-0.7-0.6-1.3-1.3-1.3H56.8
			c-0.7,0-1.3,0.6-1.3,1.3C55.6,374.2,56.1,374.8,56.8,374.8z M56.8,367.2H72c0.7,0,1.3-0.6,1.3-1.3c0-0.7-0.6-1.3-1.3-1.3H56.8
			c-0.7,0-1.3,0.6-1.3,1.3C55.6,366.7,56.1,367.2,56.8,367.2z M82.1,364.7H77c-0.7,0-1.3,0.6-1.3,1.3c0,0.7,0.6,1.3,1.3,1.3h5.1
			c0.7,0,1.3-0.6,1.3-1.3C83.4,365.3,82.8,364.7,82.1,364.7z M56.8,359.6h25.3c0.7,0,1.3-0.6,1.3-1.3c0-0.7-0.6-1.3-1.3-1.3H56.8
			c-0.7,0-1.3,0.6-1.3,1.3C55.6,359.1,56.1,359.6,56.8,359.6z"/>
	</g>
</g>
</svg>
