<?xml version="1.0" encoding="utf-8"?>
<!-- Generator: Adobe Illustrator 27.2.0, SVG Export Plug-In . SVG Version: 6.00 Build 0)  -->
<svg version="1.1" id="Layer_1" xmlns:serif="http://www.serif.com/"
	 xmlns="http://www.w3.org/2000/svg" xmlns:xlink="http://www.w3.org/1999/xlink" x="0px" y="0px" viewBox="0 0 48 60"
	 style="enable-background:new 0 0 48 60;" xml:space="preserve">
<style type="text/css">
	.st0{fill:#F3C727;}
	.st1{fill:#012362;}
	.st2{fill:#93B2DD;}
</style>
<g>
	<g>
		<g>
			<rect x="17.2" y="28.1" class="st0" width="3.1" height="14.5"/>
			<path class="st1" d="M19.8,28.6v13.5h-2.1V28.6H19.8 M20.8,27.6h-4.1v15.5h4.1V27.6L20.8,27.6z"/>
		</g>
		<g>
			<rect x="8.5" y="28.1" class="st0" width="3.1" height="14.5"/>
			<path class="st1" d="M11.1,28.6v13.5H9V28.6H11.1 M12.1,27.6H8v15.5h4.1V27.6L12.1,27.6z"/>
		</g>
		<g>
			<path class="st0" d="M6.7,49.1c-0.3,0-0.6-0.3-0.6-0.6v-2.7c0-0.3,0.3-0.6,0.6-0.6h32.8c0.3,0,0.6,0.3,0.6,0.6v2.7
				c0,0.3-0.3,0.6-0.6,0.6H6.7z"/>
			<path class="st1" d="M39.5,45.7C39.5,45.7,39.6,45.8,39.5,45.7l0.1,2.8c0,0-0.1,0.1-0.1,0.1H6.7c0,0-0.1-0.1-0.1-0.1v-2.7
				c0,0,0.1-0.1,0.1-0.1H39.5 M39.5,44.7H6.7c-0.6,0-1.1,0.5-1.1,1.1v2.7c0,0.6,0.5,1.1,1.1,1.1h32.8c0.6,0,1.1-0.5,1.1-1.1v-2.7
				C40.6,45.2,40.1,44.7,39.5,44.7L39.5,44.7z"/>
		</g>
		<g>
			<rect x="25.9" y="28.1" class="st0" width="3.1" height="14.5"/>
			<path class="st1" d="M28.5,28.6v13.5h-2.1V28.6H28.5 M29.5,27.6h-4.1v15.5h4.1V27.6L29.5,27.6z"/>
		</g>
		<g>
			<path class="st0" d="M6.7,25.6c-0.3,0-0.6-0.3-0.6-0.6v-1.7h34V25c0,0.3-0.3,0.6-0.6,0.6H6.7z"/>
			<path class="st1" d="M39.6,23.8V25c0,0-0.1,0.1-0.1,0.1H6.7c0,0-0.1-0.1-0.1-0.1v-1.2h16.5H39.6 M40.6,22.8H23.1H5.6V25
				c0,0.6,0.5,1.1,1.1,1.1h32.8c0.6,0,1.1-0.5,1.1-1.1V22.8L40.6,22.8z"/>
		</g>
		<g>
			<path class="st0" d="M3.1,20.8c-0.7,0-1-0.4-1.1-0.8c-0.1-0.4,0.2-0.8,0.7-1l18.8-9c0.6-0.3,1.1-0.4,1.6-0.4s1,0.1,1.6,0.4
				l18.8,9c0.5,0.2,0.8,0.6,0.7,1c-0.1,0.4-0.4,0.8-1.1,0.8H3.1z"/>
			<path class="st1" d="M23.1,10c0.4,0,0.9,0.1,1.4,0.4l18.8,9c0.2,0.1,0.4,0.2,0.4,0.5c0,0.2-0.2,0.4-0.6,0.4h-20h-20
				c-0.4,0-0.6-0.2-0.6-0.4c0-0.2,0.3-0.4,0.4-0.5l18.8-9C22.2,10.2,22.7,10,23.1,10 M23.1,9c-0.6,0-1.1,0.1-1.8,0.5l-18.8,9
				c-1.7,0.8-1.1,2.7,0.6,2.8h20h20c1.6-0.1,2.3-2,0.6-2.8l-18.8-9C24.3,9.2,23.7,9,23.1,9L23.1,9z"/>
		</g>
	</g>
	<g>
		<g>
			<g>
				<g>
					<g>
						<path class="st2" d="M36.1,38.3c-3,0-5.4-2.4-5.4-5.4c0-3,2.4-5.4,5.4-5.4s5.4,2.4,5.4,5.4C41.5,35.9,39.1,38.3,36.1,38.3z"/>
						<path class="st1" d="M36.1,28c2.7,0,4.9,2.2,4.9,4.9s-2.2,4.9-4.9,4.9s-4.9-2.2-4.9-4.9S33.4,28,36.1,28 M36.1,27
							c-3.3,0-5.9,2.6-5.9,5.9s2.6,5.9,5.9,5.9s5.9-2.6,5.9-5.9S39.4,27,36.1,27L36.1,27z"/>
					</g>
				</g>
			</g>
		</g>
		<g>
			<g>
				<path class="st2" d="M44.8,49.6L44.8,49.6h-0.2C44.7,49.6,44.8,49.6,44.8,49.6z"/>
				<path class="st1" d="M44.9,49.6h-0.1c0,0-0.1,0-0.2,0H44.9L44.9,49.6z"/>
			</g>
			<g>
				<polygon class="st2" points="27.4,49.6 27.5,49.6 27.3,49.6 				"/>
				<polygon class="st1" points="27.5,49.6 27.4,49.6 27.3,49.6 27.5,49.6 				"/>
			</g>
			<g>
				<path class="st2" d="M27.4,49.2c-0.4-0.1-0.8-0.3-0.8-0.9v-1.2c0-1.8,0.7-3.4,2.1-4.7c1.2-1.3,2.8-2,4.7-2h5.8
					c1.8,0,3.5,0.7,4.7,2c1.3,1.3,2.1,3,2.1,4.7v1.2c0,0.5-0.4,0.8-1,0.9H27.4z"/>
				<path class="st1" d="M39.2,40.9c1.7,0,3.2,0.6,4.4,1.8c1.2,1.2,1.9,2.8,1.9,4.4v1.2c0,0.2-0.2,0.3-0.6,0.4h-0.1H27.6h-0.1
					c-0.2,0-0.4-0.1-0.4-0.4v-1.2c0-1.6,0.6-3.1,1.9-4.4c1.1-1.2,2.6-1.8,4.4-1.8H39.2 M39.2,39.9c-1.9,0-3.9,0-5.8,0
					c-2,0-3.8,0.7-5.1,2.1c-1.4,1.4-2.2,3.1-2.2,5.1c0,0.8,0,1.1,0,1.2c0,0.8,0.6,1.3,1.3,1.4h0.2h17.2H45c0.9-0.1,1.5-0.7,1.5-1.4
					v-1.2c0-1.9-0.8-3.7-2.2-5.1S41.1,39.9,39.2,39.9L39.2,39.9z"/>
			</g>
		</g>
	</g>
</g>
</svg>
