<?xml version="1.0" encoding="utf-8"?>
<!-- Generator: Adobe Illustrator 27.2.0, SVG Export Plug-In . SVG Version: 6.00 Build 0)  -->
<svg version="1.1" id="Layer_1" xmlns:serif="http://www.serif.com/"
	 xmlns="http://www.w3.org/2000/svg" xmlns:xlink="http://www.w3.org/1999/xlink" x="0px" y="0px" viewBox="0 0 48 60"
	 style="enable-background:new 0 0 48 60;" xml:space="preserve">
<style type="text/css">
	.st0{fill-rule:evenodd;clip-rule:evenodd;fill:#012362;}
</style>
<g transform="matrix(1,0,0,1,-10,-417)">
	<g>
		<g transform="matrix(1,0,0,1,20,-31)">
			<path class="st0" d="M38,471.9L38,471.9c0-0.4-0.4-0.8-0.8-0.8H6.8c-0.4,0-0.8,0.4-0.8,0.8c0,0.2,0,0.3,0,0
				c0,3.1,2.5,5.6,5.6,5.6c5.7,0,15.1,0,20.8,0C35.5,477.5,38,475,38,471.9z M36.3,472.7c-0.4,1.8-2,3.2-3.9,3.2H11.6
				c-1.9,0-3.5-1.4-3.9-3.2H36.3z"/>
		</g>
		<g transform="matrix(1.22449,0,0,1.29412,-18.5102,-141.412)">
			<path class="st0" d="M46.8,458.7c0-0.8-0.3-1.6-1-2.2c-0.6-0.6-1.4-0.9-2.3-0.9c-3.8,0-10.6,0-14.4,0c-0.9,0-1.7,0.3-2.3,0.9
				c-0.6,0.6-1,1.4-1,2.2c0,3.8,0,10.5,0,10.5c0,0.3,0.3,0.6,0.7,0.6h19.6c0.4,0,0.7-0.3,0.7-0.6C46.8,469.2,46.8,458.7,46.8,458.7z
				 M45.5,458.7v9.9H27.2v-9.9c0-0.5,0.2-1,0.6-1.3s0.9-0.5,1.4-0.5h14.4c0.5,0,1,0.2,1.4,0.5C45.3,457.7,45.5,458.2,45.5,458.7z"/>
		</g>
		<g transform="matrix(1.22449,0,0,1.29412,1.4898,-172.412)">
			<path class="st0" d="M43.5,463.4c0-0.8-0.3-1.6-1-2.2c-0.6-0.6-1.4-0.9-2.3-0.9c-3.8,0-10.6,0-14.4,0c-0.9,0-1.7,0.3-2.3,0.9
				c-0.6,0.6-1,1.4-1,2.2c0,3.8,0,10.5,0,10.5c0,0.3,0.3,0.6,0.7,0.6h19.6c0.4,0,0.7-0.3,0.7-0.6C43.5,473.9,43.5,463.4,43.5,463.4z
				 M42.2,463.4v9.9H23.9v-9.9c0-0.5,0.2-1,0.6-1.3s0.9-0.5,1.4-0.5h14.4c0.5,0,1,0.2,1.4,0.5C42,462.5,42.2,463,42.2,463.4z"/>
		</g>
		<g transform="matrix(0.571429,0,0,0.571429,7.85714,441.714)">
			<path class="st0" d="M31.8,18.2c-3.1,0-5.6,2.5-5.6,5.6s2.5,5.6,5.6,5.6s5.6-2.5,5.6-5.6S34.8,18.2,31.8,18.2z M31.8,21
				c1.5,0,2.8,1.3,2.8,2.8s-1.3,2.8-2.8,2.8S29,25.3,29,23.8S30.2,21,31.8,21z"/>
		</g>
		<g transform="matrix(0.571429,0,0,0.571429,27.8571,410.714)">
			<path class="st0" d="M24.8,29.1c-3.1,0-5.6,2.5-5.6,5.6s2.5,5.6,5.6,5.6s5.6-2.5,5.6-5.6S27.8,29.1,24.8,29.1z M24.8,31.9
				c1.5,0,2.8,1.3,2.8,2.8s-1.3,2.8-2.8,2.8S22,36.2,22,34.7C22,33.1,23.2,31.9,24.8,31.9z"/>
		</g>
		<g transform="matrix(0.6,0,0,0.767255,6.8,434.077)">
			<path class="st0" d="M41.3,41.3v-2.1c0-1.4-0.7-2.7-2-3.7c-1.3-1-2.9-1.5-4.7-1.5c-1.7,0-3.6,0-5.3,0c-1.8,0-3.5,0.5-4.7,1.5
				c-1.3,1-2,2.3-2,3.7c0,1.1,0,2.1,0,2.1c0,0.6,0.6,1,1.3,1c0.7,0,1.3-0.5,1.3-1v-2.1c0-0.8,0.4-1.6,1.2-2.2
				c0.8-0.6,1.8-0.9,2.8-0.9h5.3c1.1,0,2.1,0.3,2.8,0.9c0.8,0.6,1.2,1.4,1.2,2.2v2.1c0,0.6,0.6,1,1.3,1
				C40.7,42.3,41.3,41.8,41.3,41.3z"/>
		</g>
		<g transform="matrix(0.6,0,0,0.767255,26.8,403.077)">
			<path class="st0" d="M34.7,49.3v-2.1c0-1.4-0.7-2.7-2-3.7c-1.3-1-2.9-1.5-4.7-1.5c-1.7,0-3.6,0-5.3,0c-1.8,0-3.5,0.5-4.7,1.5
				c-1.3,1-2,2.3-2,3.7c0,1.1,0,2.1,0,2.1c0,0.6,0.6,1,1.3,1c0.7,0,1.3-0.5,1.3-1v-2.1c0-0.8,0.4-1.6,1.2-2.2
				c0.8-0.6,1.8-0.9,2.8-0.9H28c1.1,0,2.1,0.3,2.8,0.9c0.8,0.6,1.2,1.4,1.2,2.2v2.1c0,0.6,0.6,1,1.3,1S34.7,49.9,34.7,49.3z"/>
		</g>
		<path class="st0" d="M42,465.7L42,465.7c0-0.4-0.4-0.8-0.8-0.8H10.8c-0.4,0-0.8,0.4-0.8,0.8c0,0.2,0,0.3,0,0
			c0,3.1,2.5,5.6,5.6,5.6c5.7,0,15.1,0,20.8,0C39.5,471.3,42,468.8,42,465.7z M40.3,466.5c-0.4,1.8-2,3.2-3.9,3.2H15.6
			c-1.9,0-3.5-1.4-3.9-3.2H40.3z"/>
		<path class="st0" d="M41.2,458.5H46c0.6,0,1.2-0.3,1.7-0.7c0.5-0.4,0.7-1.1,0.7-1.7c0-2.5,0-7.2,0-7.2c0-0.4-0.4-0.8-0.8-0.8
			c-0.4,0-0.8,0.4-0.8,0.8v7.2c0,0.2-0.1,0.4-0.2,0.6c-0.1,0.2-0.4,0.2-0.6,0.2h-4.8c-0.4,0-0.8,0.4-0.8,0.8
			C40.4,458.2,40.8,458.5,41.2,458.5z"/>
		<g transform="matrix(-1,-1.22465e-16,1.22465e-16,-1,84,893)">
			<path class="st0" d="M57.2,460.9h6.4c0.6,0,1.2-0.3,1.7-0.7c0.5-0.4,0.7-1.1,0.7-1.7v-11.2c0-0.4-0.4-0.8-0.8-0.8
				s-0.8,0.4-0.8,0.8v11.2c0,0.2-0.1,0.4-0.2,0.6s-0.4,0.2-0.6,0.2h-6.4c-0.4,0-0.8,0.4-0.8,0.8C56.4,460.5,56.8,460.9,57.2,460.9z"
				/>
		</g>
	</g>
</g>
</svg>
