<?xml version="1.0" encoding="utf-8"?>
<!-- Generator: Adobe Illustrator 27.2.0, SVG Export Plug-In . SVG Version: 6.00 Build 0)  -->
<svg version="1.1" id="Layer_1" xmlns:serif="http://www.serif.com/"
	 xmlns="http://www.w3.org/2000/svg" xmlns:xlink="http://www.w3.org/1999/xlink" x="0px" y="0px" viewBox="0 0 48 60"
	 style="enable-background:new 0 0 48 60;" xml:space="preserve">
<style type="text/css">
	.st0{fill:#F3C727;}
	.st1{fill:#012362;}
	.st2{font-family:'Calibri-Bold';}
	.st3{font-size:25.9834px;}
</style>
<path class="st0" d="M47.3,35l-5.1-3.6c0-0.5,0.1-1,0.1-1.5s0-1-0.1-1.5l5.1-3.6c0.4-0.3,0.6-0.9,0.4-1.3l-2.7-6
	c-0.2-0.5-0.7-0.7-1.2-0.6l-5.7,1.2c-0.7-0.8-1.5-1.6-2.3-2.3l1.2-5.7c0.1-0.5-0.2-1-0.6-1.2l-6-2.7c-0.5-0.2-1-0.1-1.3,0.4
	l-3.6,5.1c-0.5,0-1-0.1-1.5-0.1s-1,0.1-1.5,0.1l-3.6-5.1C18.7,6.2,18.3,6,18,6.1c-0.1,0-0.3,0-0.4,0.1l-6,2.7
	c-0.5,0.2-0.7,0.7-0.6,1.2l1.2,5.7c-0.8,0.7-1.6,1.5-2.3,2.3l-5.7-1.2c-0.5-0.1-1,0.2-1.2,0.6l-2.7,6c-0.2,0.5-0.1,1,0.4,1.3
	l5.1,3.6c0,0.5-0.1,1-0.1,1.5s0,1,0.1,1.5L0.7,35c-0.4,0.3-0.6,0.9-0.4,1.3l2.7,6c0.2,0.5,0.7,0.7,1.2,0.6l5.7-1.2
	c0.7,0.8,1.5,1.6,2.3,2.3L11,49.7c-0.1,0.5,0.2,1,0.6,1.2l6,2.7c0.5,0.2,1,0.1,1.3-0.4l3.6-5.1c0.5,0,1,0.1,1.5,0.1s1,0,1.5-0.1
	l3.6,5.1c0.3,0.4,0.9,0.6,1.3,0.4l6-2.7c0.5-0.2,0.7-0.7,0.6-1.2L35.8,44c0.8-0.7,1.6-1.5,2.3-2.3l5.7,1.2c0.5,0.1,1-0.2,1.2-0.6
	l2.7-6C47.9,35.8,47.8,35.3,47.3,35z"/>
<g transform="translate(0,-952.36218)">
	<path class="st1" d="M24,969.9c-6.9,0-12.5,5.6-12.5,12.5s5.6,12.5,12.5,12.5s12.5-5.6,12.5-12.5S30.9,969.9,24,969.9z M24,972
		c5.7,0,10.3,4.6,10.3,10.3s-4.6,10.3-10.3,10.3s-10.3-4.6-10.3-10.3C13.7,976.7,18.3,972,24,972z"/>
	<path class="st1" d="M18,958.5c-0.1,0-0.3,0-0.4,0.1l-6,2.7c-0.5,0.2-0.7,0.7-0.6,1.2l1.2,5.7c-0.8,0.7-1.6,1.5-2.3,2.3l-5.7-1.2
		c-0.5-0.1-1,0.2-1.2,0.6l-2.7,6c-0.2,0.5-0.1,1,0.4,1.3l5.1,3.6c0,0.5-0.1,1-0.1,1.5s0,1,0.1,1.5l-5.1,3.6
		c-0.4,0.3-0.6,0.9-0.4,1.3l2.7,6c0.2,0.5,0.7,0.7,1.2,0.6l5.7-1.2c0.7,0.8,1.5,1.6,2.3,2.3l-1.2,5.7c-0.1,0.5,0.2,1,0.6,1.2l6,2.7
		c0.5,0.2,1,0.1,1.3-0.4l3.6-5.1c0.5,0,1,0.1,1.5,0.1s1,0,1.5-0.1l3.6,5.1c0.3,0.4,0.9,0.6,1.3,0.4l6-2.7c0.5-0.2,0.7-0.7,0.6-1.2
		l-1.2-5.7c0.8-0.7,1.6-1.5,2.3-2.3l5.7,1.2c0.5,0.1,1-0.2,1.2-0.6l2.7-6c0.2-0.5,0.1-1-0.4-1.3l-5.1-3.6c0-0.5,0.1-1,0.1-1.5
		s0-1-0.1-1.5l5.1-3.6c0.4-0.3,0.6-0.9,0.4-1.3l-2.7-6c-0.2-0.5-0.7-0.7-1.2-0.6l-5.7,1.2c-0.7-0.8-1.5-1.6-2.3-2.3l1.2-5.7
		c0.1-0.5-0.2-1-0.6-1.2l-6-2.7c-0.5-0.2-1-0.1-1.3,0.4l-3.6,5.1c-0.5,0-1-0.1-1.5-0.1s-1,0.1-1.5,0.1l-3.6-5.1
		C18.7,958.6,18.3,958.4,18,958.5z M17.7,960.9l3.4,4.8c0.2,0.3,0.6,0.5,1,0.5c0.6-0.1,1.3-0.1,1.9-0.1s1.3,0.1,1.9,0.1
		c0.4,0,0.8-0.1,1-0.5l3.4-4.8l4.4,2l-1.2,5.5c-0.1,0.4,0.1,0.8,0.4,1.1c1.1,0.9,2.1,1.8,3,3c0.3,0.3,0.7,0.5,1.1,0.4l5.5-1.2l2,4.4
		l-4.8,3.4c-0.3,0.2-0.5,0.6-0.5,1c0.1,0.6,0.1,1.3,0.1,1.9c0,0.7,0,1.3-0.1,1.9c0,0.4,0.1,0.8,0.5,1l4.8,3.4l-2,4.4l-5.5-1.2
		c-0.4-0.1-0.8,0.1-1.1,0.4c-0.9,1.1-1.8,2.1-3,3c-0.3,0.3-0.5,0.7-0.4,1.1l1.2,5.5l-4.4,2l-3.4-4.8c-0.2-0.3-0.6-0.5-1-0.5
		c-0.6,0.1-1.3,0.1-1.9,0.1s-1.3,0-1.9-0.1c-0.4,0-0.8,0.1-1,0.5l-3.4,4.8l-4.4-2l1.2-5.5c0.1-0.4-0.1-0.8-0.4-1.1
		c-1.1-0.9-2.1-1.8-3-3c-0.3-0.3-0.7-0.5-1.1-0.4l-5.5,1.2l-2-4.4l4.8-3.4c0.3-0.2,0.5-0.6,0.5-1c-0.1-0.6-0.1-1.3-0.1-1.9
		c0-0.7,0-1.3,0.1-1.9c0-0.4-0.1-0.8-0.5-1L2.5,976l2-4.4l5.5,1.2c0.4,0.1,0.8-0.1,1.1-0.4c0.9-1.1,1.8-2.1,3-3
		c0.3-0.3,0.5-0.7,0.4-1.1l-1.2-5.5L17.7,960.9z"/>
	<g transform="matrix(0.53488372,0,0,0.53488372,11.257683,536.74417)">
	</g>
</g>
<text transform="matrix(1 0 0 1 18.4265 38.7373)" class="st1 st2 st3">?</text>
</svg>
